<svg width="257" height="295" viewBox="0 0 257 295" fill="none" xmlns="http://www.w3.org/2000/svg">
<path d="M86.5261 119.663C86.5261 124.266 82.8442 128.408 77.7815 128.408H39.121C34.5185 128.408 30.3763 124.726 30.3763 119.663V108.617C30.3763 104.015 34.5185 99.8726 39.121 99.8726H77.7815C82.3839 99.8726 86.5261 103.555 86.5261 108.617V119.663ZM243.469 119.203C243.469 121.964 241.168 123.805 238.867 123.805H218.156C215.395 123.805 213.554 121.504 213.554 119.203V113.22C213.554 110.458 215.855 108.617 218.156 108.617H238.867C241.628 108.617 243.469 110.918 243.469 113.22V119.203ZM256.817 257.276C256.817 269.242 247.151 278.908 235.185 278.908H22.0919C10.1256 278.908 0.460449 269.242 0.460449 257.276V250.833H256.817V257.276Z" fill="#212528"/>
<path d="M0 136.232C0 124.265 9.66513 114.6 21.6315 114.6H234.725C246.691 114.6 256.356 124.265 256.356 136.232V142.675H0V136.232Z" fill="#51575B"/>
<path d="M0 141.755H256.356V254.975H0V141.755Z" fill="#3E4347"/>
<path d="M219.077 132.55H90.6689L103.556 62.1327C104.476 57.9905 109.999 52.0073 113.221 50.6266C133.011 41.882 177.195 41.882 196.525 50.6266C199.747 52.0073 205.27 58.4508 206.19 62.1327L219.077 132.55Z" fill="#51575B"/>
<path d="M213.093 173.973H97.1113L108.617 115.522C109.538 112.3 114.601 106.777 117.362 105.856C134.851 98.4925 174.893 98.4925 192.842 105.856C195.604 107.237 200.666 112.3 201.587 115.522L213.093 173.973Z" fill="#3E4347"/>
<path d="M243.009 206.19C243.009 254.976 203.428 294.557 154.642 294.557C105.856 294.557 66.2749 254.976 66.2749 206.19C66.2749 157.404 105.856 117.823 154.642 117.823C203.428 118.283 243.009 157.864 243.009 206.19Z" fill="#788287"/>
<path d="M233.345 206.19C233.345 249.453 198.366 284.431 155.103 284.431C111.84 284.431 76.8618 249.453 76.8618 206.19C76.8618 162.927 111.84 127.948 155.103 127.948C198.366 127.948 233.345 162.927 233.345 206.19Z" fill="#212528"/>
<path d="M155.102 269.703C190.18 269.703 218.616 241.267 218.616 206.189C218.616 171.112 190.18 142.676 155.102 142.676C120.024 142.676 91.5884 171.112 91.5884 206.189C91.5884 241.267 120.024 269.703 155.102 269.703Z" fill="#3E4347"/>
<path d="M155.103 240.708C174.167 240.708 189.622 225.254 189.622 206.19C189.622 187.126 174.167 171.671 155.103 171.671C136.039 171.671 120.585 187.126 120.585 206.19C120.585 225.254 136.039 240.708 155.103 240.708Z" fill="#212528"/>
<path opacity="0.5" d="M201.588 179.035C201.588 190.081 192.843 198.826 181.797 198.826C170.751 198.826 162.007 190.081 162.007 179.035C162.007 167.99 170.751 159.245 181.797 159.245C192.843 159.245 201.588 168.45 201.588 179.035Z" fill="#F5F5F5"/>
<path opacity="0.5" d="M142.677 231.043C149.54 231.043 155.104 225.479 155.104 218.616C155.104 211.753 149.54 206.19 142.677 206.19C135.814 206.19 130.25 211.753 130.25 218.616C130.25 225.479 135.814 231.043 142.677 231.043Z" fill="#F5F5F5"/>
<path opacity="0.5" d="M120.585 248.073C124.652 248.073 127.949 244.776 127.949 240.709C127.949 236.642 124.652 233.345 120.585 233.345C116.518 233.345 113.221 236.642 113.221 240.709C113.221 244.776 116.518 248.073 120.585 248.073Z" fill="#F5F5F5"/>
<path d="M60.293 237.026C60.293 241.628 56.611 245.77 51.5484 245.77H14.2686C9.66612 245.77 5.52393 242.088 5.52393 237.026V159.244C5.52393 154.642 9.20588 150.5 14.2686 150.5H51.5484C56.1508 150.5 60.293 154.182 60.293 159.244V237.026Z" fill="#636C72"/>
<path d="M40.5011 142.675C47.6183 142.675 53.3879 136.906 53.3879 129.788C53.3879 122.671 47.6183 116.902 40.5011 116.902C33.3839 116.902 27.6143 122.671 27.6143 129.788C27.6143 136.906 33.3839 142.675 40.5011 142.675Z" fill="#212528"/>
<path d="M192.843 80.0822C192.843 84.6846 189.161 87.9063 185.018 87.9063H124.727C120.124 87.9063 116.902 84.2244 116.902 80.0822V71.7978C116.902 67.1953 120.584 63.9736 124.727 63.9736H185.018C189.621 63.9736 192.843 67.6556 192.843 71.7978V80.0822Z" fill="white"/>
<path d="M176.734 69.9571L231.964 33.5978L221.838 20.2508L176.734 69.9571ZM241.169 86.9862V71.3379L184.559 81.9235L241.169 86.9862ZM188.701 0H169.831L159.705 66.7354L188.701 0ZM135.773 69.9571L88.8278 20.2508L78.2422 33.5978L135.773 69.9571ZM137.153 0H117.823L149.58 66.7354L137.153 0ZM67.1963 71.3379V86.9862L126.568 81.9235L67.1963 71.3379Z" fill="#FFCE31"/>
</svg>
