<svg width="298" height="299" viewBox="0 0 298 299" fill="none" xmlns="http://www.w3.org/2000/svg">
<path d="M273.073 24.949C239.808 -8.31632 186.186 -8.31632 153.418 24.949C126.11 52.2563 121.642 93.4655 138.523 125.738L17.3774 248.373L0 290.078L7.94395 298.022L39.2233 295.043L172.284 159.996C204.557 177.87 245.766 172.905 272.577 145.598C306.339 112.332 306.339 58.2143 273.073 24.949ZM249.241 85.5216C239.312 95.4515 222.927 95.4515 212.997 85.5216C203.067 75.5917 203.067 59.2073 212.997 48.7808C222.927 38.8509 239.312 38.8509 249.241 48.7808C259.668 58.7108 259.668 75.0952 249.241 85.5216Z" fill="#EDA454"/>
<path d="M68.5174 275.68L75.4683 268.233V258.303L39.224 295.043L61.0699 292.561L68.5174 285.113V275.68ZM119.657 223.548L126.607 216.1V206.17L82.9158 250.855H92.8457L99.7967 243.408H109.727L119.657 233.478V223.548ZM141.502 147.087C143.985 144.605 142.495 143.612 141.502 142.122C140.013 140.633 139.516 139.143 137.034 142.122L29.2941 250.855C26.8116 253.338 28.3011 254.331 29.2941 255.82C30.7836 257.31 31.2801 258.799 33.7626 255.82L141.502 147.087ZM156.397 161.982C158.88 159.5 157.39 158.507 156.397 157.017C154.908 155.528 154.411 154.038 151.929 157.017L43.6925 265.75C41.21 268.233 42.6995 269.225 43.6925 270.715C45.182 272.204 45.6785 273.694 48.161 270.715L156.397 161.982ZM268.109 29.914C237.823 -0.37236 188.67 -0.37236 158.383 29.914C135.544 52.7528 130.083 86.5146 141.502 114.815C131.076 88.0041 137.034 56.7248 158.383 35.3754C187.18 6.0821 234.347 6.0821 263.144 34.8789C291.941 64.1722 291.941 111.339 263.144 140.136C241.795 161.486 210.515 166.947 184.201 157.017C212.501 168.437 245.767 162.975 268.606 140.136C298.395 109.85 298.395 60.2003 268.109 29.914Z" fill="#CC7F2B"/>
</svg>
