<?xml version="1.0" encoding="UTF-8"?>
<svg id="_레이어_2" data-name="레이어 2" xmlns="http://www.w3.org/2000/svg" viewBox="0 0 601.69 325.77">
  <defs>
    <style>
      .cls-1 {
        fill: #F3F3F3;
        stroke-width: 0px;
      }
    </style>
  </defs>
  <g id="_레이어_10" data-name="레이어 10">
    <g>
      <path class="cls-1" d="M128.84,35.35c-9.03,4.83-19.61,8.96-31.73,12.37-12.13,3.42-24.44,5.78-36.94,7.07l4.29-20.33c5.9-.94,11.69-2.06,17.37-3.36,5.68-1.3,11.1-2.89,16.27-4.77h-31.92l3.92-18.56h53.16l1.62-7.78h29.45l-1.61,7.78h53.16l-3.8,18.56h-32.1c4.5,1.89,9.29,3.48,14.37,4.77,5.08,1.3,10.44,2.42,16.06,3.36l-4.17,20.33c-11.96-1.3-23.29-3.65-34-7.07-10.7-3.42-19.56-7.54-26.59-12.37h-6.81ZM176.92,149.01H40.29l8.76-41.54h106.62l1.02-4.95H50.1l3.8-18.03h53.34l1.33-6.36h-53.33l4.14-19.62h136.08l-4.02,19.62h-53.33l-1.32,6.36h53.34l-8.44,41.19h-106.7l-1.15,5.48h106.73l-3.66,17.85Z"/>
      <path class="cls-1" d="M220.17.88h86.95l-4.08,20.33h-28.95l-.71,3.54c-.74,3.65-.52,7.04.65,10.16,1.17,3.12,2.87,5.95,5.1,8.48,2.22,2.54,4.73,4.68,7.52,6.45,2.79,1.77,5.47,3.18,8.06,4.24l-5.1,25.45c-3.08-.94-6.42-2.27-10.04-3.98-3.62-1.71-7.12-3.68-10.52-5.92-3.39-2.24-6.55-4.62-9.48-7.16-2.92-2.53-5.22-5.15-6.88-7.87-2.76,2.71-6.09,5.33-9.98,7.87-3.89,2.54-7.99,4.92-12.29,7.16-4.3,2.24-8.61,4.21-12.92,5.92-4.31,1.71-8.2,3.04-11.65,3.98l5.2-25.45c3.01-1.06,6.27-2.47,9.77-4.24,3.5-1.77,6.88-3.92,10.13-6.45,3.25-2.53,6.09-5.36,8.53-8.48,2.44-3.12,4.03-6.51,4.77-10.16l.72-3.54h-28.95l4.15-20.33ZM224.8,149.01c-4.68,0-8.96-.35-12.85-1.06-3.89-.71-7.1-2.03-9.62-3.98-2.53-1.94-4.27-4.71-5.23-8.31-.96-3.6-.86-8.22.29-13.88,1.11-5.42,2.85-9.96,5.23-13.61,2.38-3.65,5.27-6.54,8.68-8.66,3.41-2.12,7.18-3.62,11.33-4.51,4.14-.88,8.61-1.33,13.39-1.33h70.16c4.78,0,9.1.44,12.95,1.33,3.85.88,7.05,2.39,9.6,4.51,2.55,2.12,4.28,5.01,5.2,8.66.91,3.65.83,8.19-.25,13.61s-2.89,10.28-5.29,13.88c-2.41,3.59-5.27,6.36-8.57,8.31-3.31,1.94-7.08,3.27-11.31,3.98-4.24.71-8.69,1.06-13.37,1.06h-70.33ZM295.72,128.51c4.56,0,7.29-2.3,8.21-6.89.47-2.36.28-4.18-.57-5.48-.85-1.3-2.44-1.94-4.78-1.94h-63.22c-2.22,0-4.01.65-5.39,1.94-1.37,1.3-2.3,3.12-2.78,5.48-.93,4.6.82,6.89,5.26,6.89h63.26ZM318.44.88h29.62l-5.76,28.99h14.48l-4.06,20.5h-14.49l-5.72,28.81h-29.73L318.44.88Z"/>
      <path class="cls-1" d="M415.03,76.54c-.71,3.65-.45,7.25.78,10.78,1.24,3.54,2.96,6.84,5.16,9.9,2.2,3.07,4.65,5.81,7.33,8.22,2.68,2.42,5.11,4.33,7.29,5.74l-6.65,34.29c-7.38-4.13-14.11-8.93-20.17-14.41-6.06-5.48-11.16-11.93-15.32-19.36-7.06,7.42-14.69,13.88-22.89,19.36-8.21,5.48-16.75,10.28-25.63,14.41l6.77-34.29c2.73-1.41,5.91-3.33,9.54-5.74,3.63-2.41,7.14-5.15,10.55-8.22,3.4-3.06,6.41-6.36,9.03-9.9,2.62-3.54,4.29-7.13,5-10.78L400.68.88h29.1l-14.75,75.65ZM470.03.88h29.62l-11.94,62.22h16.25l-5.58,29.17h-16.27l-10.89,56.74h-29.82L470.03.88Z"/>
      <path class="cls-1" d="M523.35.88h86.95l-3.8,20.33h-28.95l-1.66,8.84c-.69,3.65-.43,7.04.79,10.16,1.21,3.12,2.95,5.95,5.21,8.48,2.26,2.54,4.8,4.68,7.61,6.45,2.81,1.77,5.52,3.18,8.11,4.24l-4.76,25.45c-3.09-.94-6.46-2.27-10.1-3.98-3.64-1.71-7.18-3.68-10.6-5.92-3.42-2.24-6.62-4.62-9.58-7.16-2.96-2.53-5.29-5.15-6.99-7.87-2.73,2.71-6.02,5.33-9.87,7.87-3.86,2.54-7.92,4.92-12.19,7.16-4.27,2.24-8.55,4.21-12.84,5.92-4.29,1.71-8.16,3.04-11.6,3.98l4.86-25.45c3-1.06,6.24-2.47,9.72-4.24,3.48-1.77,6.83-3.92,10.05-6.45,3.21-2.53,6.02-5.36,8.42-8.48,2.39-3.12,3.94-6.51,4.63-10.16l1.68-8.84h-28.95l3.88-20.33ZM634.34,149.01h-137.51l10.42-54.62h29.75l-6.46,34.12h107.59l-3.79,20.5ZM628.59.88h29.62l-17.74,95.98h-29.75L628.59.88Z"/>
      <path class="cls-1" d="M523.35.88h86.95l-3.8,20.33h-28.95l-1.66,8.84c-.69,3.65-.43,7.04.79,10.16,1.21,3.12,2.95,5.95,5.21,8.48,2.26,2.54,4.8,4.68,7.61,6.45,2.81,1.77,5.52,3.18,8.11,4.24l-4.76,25.45c-3.09-.94-6.46-2.27-10.1-3.98-3.64-1.71-7.18-3.68-10.6-5.92-3.42-2.24-6.62-4.62-9.58-7.16-2.96-2.53-5.29-5.15-6.99-7.87-2.73,2.71-6.02,5.33-9.87,7.87-3.86,2.54-7.92,4.92-12.19,7.16-4.27,2.24-8.55,4.21-12.84,5.92-4.29,1.71-8.16,3.04-11.6,3.98l4.86-25.45c3-1.06,6.24-2.47,9.72-4.24,3.48-1.77,6.83-3.92,10.05-6.45,3.21-2.53,6.02-5.36,8.42-8.48,2.39-3.12,3.94-6.51,4.63-10.16l1.68-8.84h-28.95l3.88-20.33ZM634.34,149.01h-137.51l10.42-54.62h29.75l-6.46,34.12h107.59l-3.79,20.5ZM628.59.88h29.62l-17.74,95.98h-29.75L628.59.88Z"/>
      <path class="cls-1" d="M73.97,253.3c-.76,3.65-.54,7.25.66,10.78,1.2,3.54,2.9,6.84,5.08,9.9,2.18,3.07,4.61,5.81,7.29,8.22,2.67,2.42,5.1,4.33,7.28,5.74l-7.11,34.29c-7.39-4.13-14.11-8.93-20.15-14.41-6.04-5.48-11.11-11.93-15.2-19.36-7.2,7.42-14.97,13.88-23.3,19.36-8.34,5.48-17,10.28-26,14.41l7.24-34.29c2.77-1.41,6-3.33,9.68-5.74,3.68-2.41,7.26-5.15,10.73-8.22,3.47-3.06,6.54-6.36,9.22-9.9,2.68-3.54,4.41-7.13,5.17-10.78l11.61-55.33h-29.18l4.29-20.33h87.63l-4.21,20.33h-29.18l-11.54,55.33ZM101.82,234.56h23.77l11.75-56.92h29.85l-30.38,148.13h-30.05l12.81-62.04h-23.8l6.05-29.17Z"/>
      <path class="cls-1" d="M184.05,177.65h87.63l-4.08,20.33h-29.18l-.71,3.54c-.74,3.65-.52,7.04.67,10.16,1.19,3.12,2.9,5.95,5.15,8.48,2.24,2.54,4.78,4.68,7.59,6.45,2.81,1.77,5.52,3.18,8.12,4.24l-5.1,25.45c-3.1-.94-6.48-2.27-10.13-3.98-3.65-1.71-7.19-3.68-10.61-5.92-3.42-2.24-6.61-4.62-9.56-7.16-2.95-2.53-5.27-5.15-6.95-7.87-2.78,2.71-6.13,5.33-10.04,7.87-3.92,2.54-8.04,4.92-12.37,7.16-4.33,2.24-8.67,4.21-13.01,5.92-4.34,1.71-8.26,3.04-11.74,3.98l5.2-25.45c3.03-1.06,6.31-2.47,9.84-4.24,3.53-1.77,6.93-3.92,10.2-6.45,3.27-2.53,6.13-5.36,8.59-8.48,2.45-3.12,4.05-6.51,4.79-10.16l.72-3.54h-29.18l4.15-20.33ZM188.96,325.77c-4.72,0-9.03-.35-12.95-1.06-3.92-.71-7.16-2.03-9.71-3.98-2.55-1.94-4.31-4.71-5.28-8.31-.97-3.6-.88-8.22.27-13.88s2.86-9.96,5.25-13.61c2.39-3.65,5.3-6.54,8.73-8.66,3.43-2.12,7.23-3.62,11.41-4.51,4.17-.88,8.67-1.33,13.49-1.33h70.71c4.82,0,9.17.44,13.05,1.33,3.88.88,7.11,2.39,9.69,4.51,2.58,2.12,4.32,5.01,5.25,8.66.92,3.65.85,8.19-.23,13.61s-2.89,10.28-5.31,13.88c-2.42,3.59-5.3,6.36-8.63,8.31-3.33,1.94-7.13,3.27-11.39,3.98-4.27.71-8.76,1.06-13.47,1.06h-70.88ZM260.4,305.27c4.59,0,7.35-2.3,8.26-6.89.47-2.36.28-4.18-.58-5.48-.86-1.3-2.47-1.94-4.82-1.94h-63.71c-2.24,0-4.04.65-5.42,1.94-1.38,1.3-2.31,3.12-2.79,5.48-.93,4.6.84,6.89,5.31,6.89h63.75ZM283.09,177.65h29.85l-5.76,28.99h14.59l-4.06,20.5h-14.61l-5.72,28.81h-29.96l15.66-78.31Z"/>
      <path class="cls-1" d="M316.38,305.27h52.1l7.35-37.65h29.8l-7.3,37.65h52.1l-3.93,20.5h-134.16l4.05-20.5ZM454.65,273.98c-5.87-1.88-11.54-4.18-17.02-6.89-5.47-2.71-10.72-5.66-15.75-8.84-5.02-3.18-9.67-6.63-13.95-10.34-4.27-3.71-8.03-7.51-11.26-11.4-9.64,7.9-20.83,15.14-33.57,21.74-12.75,6.6-25.68,11.84-38.79,15.73l5.75-29.17c5-1.53,10.72-3.77,17.17-6.72,6.45-2.94,12.55-6.24,18.31-9.9,5.76-3.65,10.76-7.48,15-11.49,4.24-4,6.72-7.84,7.43-11.49l5.38-27.57h29.68l-5.34,27.57c-.71,3.65.28,7.49,2.96,11.49,2.68,4.01,6.19,7.84,10.54,11.49,4.34,3.65,9.13,6.95,14.38,9.9,5.24,2.95,10.13,5.19,14.65,6.72l-5.59,29.17Z"/>
    </g>
  </g>
</svg>