<?xml version="1.0" encoding="UTF-8"?>
<svg id="_레이어_2" data-name=" 레이어 2" xmlns="http://www.w3.org/2000/svg" version="1.1" viewBox="0 0 663 325.8">
  <defs>
    <style>
      .cls-1 {
        fill: #000;
        stroke-width: 0px;
      }
    </style>
  </defs>
  <g id="_레이어_10" data-name=" 레이어 10">
    <g>
      <path class="cls-1" d="M128.8,35.3c-9,4.8-19.6,9-31.7,12.4-12.1,3.4-24.4,5.8-36.9,7.1l4.3-20.3c5.9-.9,11.7-2.1,17.4-3.4s11.1-2.9,16.3-4.8h-31.9l3.9-18.6h53.2L124.9,0h29.5l-1.6,7.8h53.2l-3.8,18.6h-32.1c4.5,1.9,9.3,3.5,14.4,4.8,5.1,1.3,10.4,2.4,16.1,3.4l-4.2,20.3c-12-1.3-23.3-3.7-34-7.1-10.7-3.4-19.6-7.5-26.6-12.4h-6.8ZM176.9,149H40.3l8.8-41.5h106.6l1-4.9H50.1l3.8-18h53.3l1.3-6.4h-53.3l4.1-19.6h136.1l-4,19.6h-53.3l-1.3,6.4h53.3l-8.4,41.2h-106.7l-1.2,5.5h106.7l-3.7,17.9h0Z"/>
      <path class="cls-1" d="M220.2.9h86.9l-4.1,20.3h-29l-.7,3.5c-.7,3.6-.5,7,.6,10.2,1.2,3.1,2.9,6,5.1,8.5,2.2,2.5,4.7,4.7,7.5,6.5,2.8,1.8,5.5,3.2,8.1,4.2l-5.1,25.4c-3.1-.9-6.4-2.3-10-4-3.6-1.7-7.1-3.7-10.5-5.9-3.4-2.2-6.5-4.6-9.5-7.2-2.9-2.5-5.2-5.2-6.9-7.9-2.8,2.7-6.1,5.3-10,7.9s-8,4.9-12.3,7.2c-4.3,2.2-8.6,4.2-12.9,5.9s-8.2,3-11.6,4l5.2-25.5c3-1.1,6.3-2.5,9.8-4.2s6.9-3.9,10.1-6.5c3.2-2.5,6.1-5.4,8.5-8.5s4-6.5,4.8-10.2l.7-3.5h-28.9s4.1-20.3,4.1-20.3ZM224.8,149c-4.7,0-9-.4-12.9-1.1-3.9-.7-7.1-2-9.6-4-2.5-1.9-4.3-4.7-5.2-8.3-1-3.6-.9-8.2.3-13.9,1.1-5.4,2.9-10,5.2-13.6,2.4-3.7,5.3-6.5,8.7-8.7,3.4-2.1,7.2-3.6,11.3-4.5,4.1-.9,8.6-1.3,13.4-1.3h70.2c4.8,0,9.1.4,13,1.3,3.9.9,7,2.4,9.6,4.5,2.5,2.1,4.3,5,5.2,8.7.9,3.7.8,8.2-.2,13.6s-2.9,10.3-5.3,13.9c-2.4,3.6-5.3,6.4-8.6,8.3-3.3,1.9-7.1,3.3-11.3,4-4.2.7-8.7,1.1-13.4,1.1h-70.3ZM295.7,128.5c4.6,0,7.3-2.3,8.2-6.9.5-2.4.3-4.2-.6-5.5s-2.4-1.9-4.8-1.9h-63.2c-2.2,0-4,.7-5.4,1.9-1.4,1.3-2.3,3.1-2.8,5.5-.9,4.6.8,6.9,5.3,6.9h63.3ZM318.4.9h29.6l-5.8,29h14.5l-4.1,20.5h-14.5l-5.7,28.8h-29.7L318.4.9Z"/>
      <path class="cls-1" d="M415,76.5c-.7,3.7-.5,7.2.8,10.8,1.2,3.5,3,6.8,5.2,9.9,2.2,3.1,4.6,5.8,7.3,8.2,2.7,2.4,5.1,4.3,7.3,5.7l-6.6,34.3c-7.4-4.1-14.1-8.9-20.2-14.4-6.1-5.5-11.2-11.9-15.3-19.4-7.1,7.4-14.7,13.9-22.9,19.4-8.2,5.5-16.8,10.3-25.6,14.4l6.8-34.3c2.7-1.4,5.9-3.3,9.5-5.7,3.6-2.4,7.1-5.2,10.5-8.2,3.4-3.1,6.4-6.4,9-9.9s4.3-7.1,5-10.8L400.7.9h29.1l-14.8,75.6h0ZM470,.9h29.6l-11.9,62.2h16.2l-5.6,29.2h-16.3l-10.9,56.7h-29.8L470,.9Z"/>
      <path class="cls-1" d="M523.3.9h87l-3.8,20.3h-29l-1.7,8.8c-.7,3.7-.4,7,.8,10.2,1.2,3.1,3,6,5.2,8.5,2.3,2.5,4.8,4.7,7.6,6.5s5.5,3.2,8.1,4.2l-4.8,25.5c-3.1-.9-6.5-2.3-10.1-4-3.6-1.7-7.2-3.7-10.6-5.9s-6.6-4.6-9.6-7.2c-3-2.5-5.3-5.2-7-7.9-2.7,2.7-6,5.3-9.9,7.9-3.9,2.5-7.9,4.9-12.2,7.2-4.3,2.2-8.5,4.2-12.8,5.9-4.3,1.7-8.2,3-11.6,4l4.9-25.5c3-1.1,6.2-2.5,9.7-4.2s6.8-3.9,10-6.5c3.2-2.5,6-5.4,8.4-8.5,2.4-3.1,3.9-6.5,4.6-10.2l1.7-8.8h-29l3.9-20.3h0ZM634.3,149h-137.5l10.4-54.6h29.7l-6.5,34.1h107.6l-3.8,20.5ZM628.6.9h29.6l-17.7,96h-29.8L628.6.9Z"/>
      <path class="cls-1" d="M523.3.9h87l-3.8,20.3h-29l-1.7,8.8c-.7,3.7-.4,7,.8,10.2,1.2,3.1,3,6,5.2,8.5,2.3,2.5,4.8,4.7,7.6,6.5s5.5,3.2,8.1,4.2l-4.8,25.5c-3.1-.9-6.5-2.3-10.1-4-3.6-1.7-7.2-3.7-10.6-5.9s-6.6-4.6-9.6-7.2c-3-2.5-5.3-5.2-7-7.9-2.7,2.7-6,5.3-9.9,7.9-3.9,2.5-7.9,4.9-12.2,7.2-4.3,2.2-8.5,4.2-12.8,5.9-4.3,1.7-8.2,3-11.6,4l4.9-25.5c3-1.1,6.2-2.5,9.7-4.2s6.8-3.9,10-6.5c3.2-2.5,6-5.4,8.4-8.5,2.4-3.1,3.9-6.5,4.6-10.2l1.7-8.8h-29l3.9-20.3h0ZM634.3,149h-137.5l10.4-54.6h29.7l-6.5,34.1h107.6l-3.8,20.5ZM628.6.9h29.6l-17.7,96h-29.8L628.6.9Z"/>
      <path class="cls-1" d="M74,253.3c-.8,3.7-.5,7.2.7,10.8,1.2,3.5,2.9,6.8,5.1,9.9,2.2,3.1,4.6,5.8,7.3,8.2,2.7,2.4,5.1,4.3,7.3,5.7l-7.1,34.3c-7.4-4.1-14.1-8.9-20.2-14.4s-11.1-11.9-15.2-19.4c-7.2,7.4-15,13.9-23.3,19.4-8.3,5.5-17,10.3-26,14.4l7.2-34.3c2.8-1.4,6-3.3,9.7-5.7s7.3-5.1,10.7-8.2c3.5-3.1,6.5-6.4,9.2-9.9s4.4-7.1,5.2-10.8l11.6-55.3h-29.2l4.3-20.3h87.6l-4.2,20.3h-29.2l-11.5,55.3h0ZM101.8,234.6h23.8l11.8-56.9h29.9l-30.4,148.1h-30.1l12.8-62h-23.8l6.1-29.2h0Z"/>
      <path class="cls-1" d="M184.1,177.6h87.6l-4.1,20.3h-29.2l-.7,3.5c-.7,3.6-.5,7,.7,10.2,1.2,3.1,2.9,5.9,5.1,8.5,2.2,2.5,4.8,4.7,7.6,6.4s5.5,3.2,8.1,4.2l-5.1,25.4c-3.1-.9-6.5-2.3-10.1-4-3.6-1.7-7.2-3.7-10.6-5.9s-6.6-4.6-9.6-7.2c-2.9-2.5-5.3-5.1-6.9-7.9-2.8,2.7-6.1,5.3-10,7.9-3.9,2.5-8,4.9-12.4,7.2s-8.7,4.2-13,5.9c-4.3,1.7-8.3,3-11.7,4l5.2-25.4c3-1.1,6.3-2.5,9.8-4.2s6.9-3.9,10.2-6.4,6.1-5.4,8.6-8.5c2.4-3.1,4.1-6.5,4.8-10.2l.7-3.5h-29.2l4.1-20.3h0ZM189,325.8c-4.7,0-9-.4-12.9-1.1s-7.2-2-9.7-4c-2.6-1.9-4.3-4.7-5.3-8.3s-.9-8.2.3-13.9,2.9-10,5.2-13.6,5.3-6.5,8.7-8.7,7.2-3.6,11.4-4.5c4.2-.9,8.7-1.3,13.5-1.3h70.7c4.8,0,9.2.4,13,1.3,3.9.9,7.1,2.4,9.7,4.5,2.6,2.1,4.3,5,5.2,8.7.9,3.6.9,8.2-.2,13.6s-2.9,10.3-5.3,13.9c-2.4,3.6-5.3,6.4-8.6,8.3-3.3,1.9-7.1,3.3-11.4,4-4.3.7-8.8,1.1-13.5,1.1h-70.9,0ZM260.4,305.3c4.6,0,7.4-2.3,8.3-6.9.5-2.4.3-4.2-.6-5.5-.9-1.3-2.5-1.9-4.8-1.9h-63.7c-2.2,0-4,.6-5.4,1.9-1.4,1.3-2.3,3.1-2.8,5.5-.9,4.6.8,6.9,5.3,6.9h63.8,0ZM283.1,177.6h29.9l-5.8,29h14.6l-4.1,20.5h-14.6l-5.7,28.8h-30l15.7-78.3h0Z"/>
      <path class="cls-1" d="M316.4,305.3h52.1l7.4-37.6h29.8l-7.3,37.6h52.1l-3.9,20.5h-134.2l4-20.5h0ZM454.6,274c-5.9-1.9-11.5-4.2-17-6.9-5.5-2.7-10.7-5.7-15.8-8.8-5-3.2-9.7-6.6-14-10.3-4.3-3.7-8-7.5-11.3-11.4-9.6,7.9-20.8,15.1-33.6,21.7-12.8,6.6-25.7,11.8-38.8,15.7l5.8-29.2c5-1.5,10.7-3.8,17.2-6.7,6.5-2.9,12.5-6.2,18.3-9.9,5.8-3.6,10.8-7.5,15-11.5,4.2-4,6.7-7.8,7.4-11.5l5.4-27.6h29.7l-5.3,27.6c-.7,3.6.3,7.5,3,11.5,2.7,4,6.2,7.8,10.5,11.5,4.3,3.6,9.1,6.9,14.4,9.9,5.2,2.9,10.1,5.2,14.6,6.7l-5.6,29.2h0Z"/>
    </g>
  </g>
</svg>